<?xml version="1.0" encoding="utf-8"?>
<!-- Generator: Adobe Illustrator 24.1.0, SVG Export Plug-In . SVG Version: 6.00 Build 0)  -->
<svg version="1.1" id="Layer_1" xmlns="http://www.w3.org/2000/svg" xmlns:xlink="http://www.w3.org/1999/xlink" x="0px" y="0px"
	 viewBox="0 0 1920 1920" style="enable-background:new 0 0 1920 1920;" xml:space="preserve">
<style type="text/css">
	.st0{fill:#20539E;}
</style>
<g>
	<g>
		<path class="st0" d="M911.91,893.83v132.41c0,9.47-7.05,16.76-16.28,16.76c-9.47,0-16.52-7.29-16.52-16.76v-79.2l-30.13,47.38
			c-4.62,7.29-8.99,10.45-15.55,10.45c-6.32,0-10.93-3.16-15.55-10.45l-30.13-47.86v79.69c0,9.47-7.05,16.76-16.28,16.76
			c-9.47,0-16.52-7.29-16.52-16.76V893.83c0-9.72,6.8-17.01,16.03-17.01c7.05,0,11.66,3.4,17.25,12.63l45.19,71.67l45.19-71.67
			c5.83-9.23,10.2-12.63,17.25-12.63C905.11,876.83,911.91,884.12,911.91,893.83z"/>
		<path class="st0" d="M1057.92,973.52v0.73c0,10.2-7.29,16.76-17.98,16.76h-68.51c3.89,15.06,16.04,23.81,33.77,23.81
			c8.75,0,17.74-2.43,25.03-7.04c2.43-1.46,4.62-2.19,7.05-2.19c7.53,0,13.36,5.59,13.36,13.12c0,5.35-2.43,9.23-8.26,13.12
			c-10.93,7.29-24.05,11.18-38.14,11.18c-37.9,0-65.84-26.97-65.84-62.93c0-35.71,26.97-62.93,62.44-62.93
			C1033.63,917.16,1057.92,940.97,1057.92,973.52z M971.43,967.93h54.67c-0.49-14.33-10.69-24.3-26-24.3
			C985.77,943.64,975.08,953.11,971.43,967.93z"/>
		<path class="st0" d="M1203.69,871.72v154.76c0,9.47-6.8,16.52-16.03,16.52c-8.5,0-15.55-6.8-16.04-15.31
			c-8.26,9.72-21.14,15.31-36.69,15.31c-33.77,0-58.31-26.48-58.31-62.93s24.54-62.93,58.31-62.93c15.06,0,27.7,5.35,35.96,14.33
			V871.7c0-9.48,7.04-16.76,16.52-16.76C1196.65,854.96,1203.69,862.01,1203.69,871.72z M1171.38,980.08
			c0-19.68-12.39-33.29-30.37-33.29s-31.1,14.09-31.1,33.04c0,19.44,12.88,33.29,31.1,33.29
			C1159.23,1013.13,1171.38,999.76,1171.38,980.08z"/>
		<path class="st0" d="M1230.9,1025.76c-3.16-2.67-4.62-6.32-4.62-10.2c0-7.53,6.07-13.85,13.61-13.85c3.16,0,6.07,0.97,9.47,3.65
			c7.05,6.07,15.79,10.69,26.24,10.69c8.26,0,15.31-3.16,15.31-9.96c0-5.59-5.1-7.77-12.39-10.93l-12.88-5.34
			c-20.41-8.26-32.8-17.74-32.8-36.69c0-23.08,18.71-36.2,44.22-36.2c14.33,0,28.18,4.62,37.9,12.88c3.89,2.92,5.83,6.8,5.83,11.18
			c0,7.53-6.07,13.61-13.36,13.61c-2.92,0-5.83-1.46-8.75-3.4c-6.32-4.37-13.85-7.29-21.87-7.29c-7.78,0-12.88,2.67-12.88,8.5
			c0,4.86,3.89,7.29,12.63,10.69l11.66,4.86c21.62,8.75,33.77,17.98,33.77,36.69c0,24.78-20.65,38.39-46.89,38.39
			C1257.14,1043.01,1241.59,1036.21,1230.9,1025.76z"/>
		<path class="st0" d="M1459.51,973.52v0.73c0,10.2-7.29,16.76-17.98,16.76h-68.51c3.89,15.06,16.03,23.81,33.77,23.81
			c8.74,0,17.74-2.43,25.02-7.04c2.43-1.46,4.62-2.19,7.05-2.19c7.53,0,13.36,5.59,13.36,13.12c0,5.35-2.43,9.23-8.26,13.12
			c-10.93,7.29-24.05,11.18-38.14,11.18c-37.9,0-65.84-26.97-65.84-62.93c0-35.71,26.97-62.93,62.44-62.93
			C1435.22,917.16,1459.51,940.97,1459.51,973.52z M1373.02,967.93h54.67c-0.49-14.33-10.69-24.3-26-24.3
			C1387.36,943.64,1376.67,953.11,1373.02,967.93z"/>
		<path class="st0" d="M1564.95,1026.73c0,6.07-3.16,10.69-8.26,13.12c-4.62,1.94-9.96,3.16-17.01,3.16
			c-31.34,0-48.11-15.79-48.11-45.19v-50.29h-6.8c-8.02,0-14.09-5.83-14.09-13.85c0-8.02,6.07-13.85,14.09-13.85h6.8v-16.52
			c0-9.47,6.8-16.52,16.52-16.52c9.23,0,16.28,7.05,16.28,16.52v16.52h22.11c8.02,0,13.85,5.83,13.85,13.85
			c0,8.02-5.83,13.85-13.85,13.85h-22.11v47.38c0,13.36,6.32,18.71,21.62,18.71c1.94,0,3.4-0.24,4.62-0.24
			C1559.36,1013.37,1564.95,1018.71,1564.95,1026.73z"/>
	</g>
	<path class="st0" d="M665.68,986.99c-7.34,16.65-16.85,31.93-29.68,44.87c-16.83,16.95-36,29.48-57.85,36.7
		c-3.9,5.78-10.59,9.51-18.24,9.44c-11.83-0.14-21.21-9.81-21-21.76c0.22-12.85,10.31-21.68,22.07-21.19
		c4.15,0.17,7.93,1.37,11.09,3.37l0,0c32.41-12.95,55.29-35.34,67.7-68.53c5.49-14.71,7.76-29.78,6.81-45.44
		c-1.63-27.22-26.9-51.09-54.92-52.19c-25.73-1.02-47.53,15.34-55.67,35.24c-2.1,5.12-2.83,10.81-4.1,16.26l0,0
		c-0.83,3.57-4.02,6.1-7.69,6.1h-16.12c-3.67,0-6.85-2.53-7.69-6.1l0,0c-1.27-5.44-2-11.14-4.1-16.26
		c-8.14-19.9-29.95-36.26-55.67-35.24c-28.02,1.1-53.29,24.97-54.94,52.19c-0.93,15.66,1.34,30.73,6.83,45.44
		c12.41,33.21,35.32,55.6,67.73,68.55h0.02c3.61-2.34,7.95-3.58,12.56-3.39c12.07,0.51,20.98,9.63,20.8,21.95
		c-0.19,11.83-9.85,21.12-21.87,21c-7.25-0.08-13.59-3.76-17.36-9.34c-21.97-7.22-41.22-19.78-58.12-36.8
		c-12.85-12.93-22.34-28.22-29.68-44.87c-10.27-23.32-14.07-48.09-9.9-72.82c6.46-38.48,36.56-66.38,75.65-71.45
		c33.71-4.39,65.78,11.44,83.79,38.26c18-26.82,50.07-42.65,83.77-38.26c39.1,5.07,69.21,32.97,75.67,71.45
		C679.74,938.9,675.96,963.67,665.68,986.99z"/>
</g>
</svg>
